<svg data-v-423bf9ae="" xmlns="http://www.w3.org/2000/svg" viewBox="0 0 414.4514003541151 60" class="font"><!----><!----><!----><g data-v-423bf9ae="" id="378d128a-c95a-4623-91a9-2095ec1d1da7" fill="white" transform="matrix(4.7021942138671875,0,0,4.7021942138671875,-8.887133598327637,-16.504701614379883)"><path d="M11.06 7.46L11.06 7.46L11.06 7.46Q11.06 8.33 10.58 9.01L10.58 9.01L10.58 9.01Q10.11 9.69 9.28 10.14L9.28 10.14L9.28 10.14Q9.81 10.50 10.13 11.03L10.13 11.03L10.13 11.03Q10.44 11.55 10.44 12.18L10.44 12.18L10.44 12.18Q10.44 12.94 9.99 13.67L9.99 13.67L9.99 13.67Q9.53 14.41 8.78 14.97L8.78 14.97L8.78 14.97Q8.02 15.54 7.06 15.89L7.06 15.89L7.06 15.89Q6.09 16.24 5.08 16.24L5.08 16.24L5.08 16.24Q3.99 16.24 3.17 15.83L3.17 15.83L3.17 15.83Q2.35 15.41 1.89 14.66L1.89 14.66L1.89 14.66Q2.03 14.24 2.26 13.62L2.26 13.62L2.26 13.62Q2.49 12.99 2.77 12.30L2.77 12.30L2.77 12.30Q3.05 11.61 3.34 10.92L3.34 10.92L3.34 10.92Q3.63 10.23 3.88 9.69L3.88 9.69L3.88 9.69Q4.41 8.50 4.83 7.71L4.83 7.71L4.83 7.71Q5.25 6.93 5.60 6.47L5.60 6.47L5.60 6.47Q4.83 6.71 4.20 7.01L4.20 7.01L4.20 7.01Q3.57 7.31 3.28 7.59L3.28 7.59L3.28 7.59Q3.15 7.50 3.02 7.34L3.02 7.34L3.02 7.34Q2.88 7.17 2.77 6.96L2.77 6.96L2.77 6.96Q2.65 6.76 2.57 6.55L2.57 6.55L2.57 6.55Q2.49 6.34 2.48 6.17L2.48 6.17L2.48 6.17Q2.84 5.92 3.42 5.69L3.42 5.69L3.42 5.69Q4.00 5.46 4.69 5.29L4.69 5.29L4.69 5.29Q5.38 5.12 6.10 5.03L6.10 5.03L6.10 5.03Q6.82 4.93 7.48 4.93L7.48 4.93L7.48 4.93Q9.16 4.93 10.11 5.60L10.11 5.60L10.11 5.60Q11.06 6.27 11.06 7.46ZM5.73 10.81L5.73 10.81L5.73 10.81Q5.46 10.68 5.24 10.43L5.24 10.43L5.24 10.43Q4.91 11.14 4.63 11.83L4.63 11.83L4.63 11.83Q4.34 12.52 4.12 13.10L4.12 13.10L4.12 13.10Q3.89 13.69 3.75 14.13L3.75 14.13L3.75 14.13Q3.61 14.56 3.60 14.76L3.60 14.76L3.60 14.76Q3.79 14.87 4.07 14.92L4.07 14.92L4.07 14.92Q4.34 14.98 4.75 14.98L4.75 14.98L4.75 14.98Q5.70 14.98 6.57 14.71L6.57 14.71L6.57 14.71Q7.43 14.45 8.09 13.99L8.09 13.99L8.09 13.99Q8.75 13.54 9.14 12.95L9.14 12.95L9.14 12.95Q9.53 12.36 9.53 11.72L9.53 11.72L9.53 11.72Q9.53 10.79 8.74 10.39L8.74 10.39L8.74 10.39Q7.64 10.84 6.27 10.84L6.27 10.84L6.27 10.84Q6.08 10.84 5.97 10.84L5.97 10.84L5.97 10.84Q5.87 10.84 5.73 10.81ZM8.44 5.95L8.44 5.95L8.44 5.95Q8.15 5.95 7.82 5.98L7.82 5.98L7.82 5.98Q7.49 6.02 7.13 6.09L7.13 6.09L7.13 6.09Q7.18 6.15 7.22 6.21L7.22 6.21L7.22 6.21Q7.25 6.27 7.28 6.34L7.28 6.34L7.28 6.34Q7.15 6.51 6.97 6.83L6.97 6.83L6.97 6.83Q6.79 7.15 6.57 7.58L6.57 7.58L6.57 7.58Q6.34 8.01 6.10 8.53L6.10 8.53L6.10 8.53Q5.85 9.04 5.60 9.59L5.60 9.59L5.60 9.59Q5.84 9.53 6.18 9.50L6.18 9.50L6.18 9.50Q6.52 9.46 6.86 9.46L6.86 9.46L6.86 9.46Q7.04 9.46 7.22 9.48L7.22 9.48L7.22 9.48Q7.39 9.49 7.56 9.52L7.56 9.52L7.56 9.52Q8.23 9.41 8.77 9.19L8.77 9.19L8.77 9.19Q9.31 8.97 9.70 8.69L9.70 8.69L9.70 8.69Q10.09 8.40 10.30 8.05L10.30 8.05L10.30 8.05Q10.51 7.70 10.51 7.31L10.51 7.31L10.51 7.31Q10.51 6.64 9.98 6.29L9.98 6.29L9.98 6.29Q9.45 5.95 8.44 5.95ZM11.33 14.24L11.33 14.24L11.33 14.24Q11.33 14.11 11.35 13.92L11.35 13.92L11.35 13.92Q11.37 13.73 11.42 13.42L11.42 13.42L11.42 13.42Q11.48 13.10 11.57 12.66L11.57 12.66L11.57 12.66Q11.66 12.21 11.80 11.58L11.80 11.58L11.80 11.58Q11.83 11.44 11.93 11.13L11.93 11.13L11.93 11.13Q12.03 10.82 12.19 10.48L12.19 10.48L12.19 10.48Q12.35 10.14 12.58 9.81L12.58 9.81L12.58 9.81Q12.81 9.49 13.13 9.34L13.13 9.34L13.13 9.34Q13.37 9.39 13.76 9.63L13.76 9.63L13.76 9.63Q14.15 9.86 14.43 10.26L14.43 10.26L14.43 10.26Q14.11 10.63 13.90 10.99L13.90 10.99L13.90 10.99Q13.68 11.35 13.50 11.75L13.50 11.75L13.50 11.75Q13.33 12.14 13.18 12.56L13.18 12.56L13.18 12.56Q13.03 12.98 12.85 13.44L12.85 13.44L12.85 13.44Q12.70 13.83 12.57 14.25L12.57 14.25L12.57 14.25Q12.45 14.66 12.43 14.97L12.43 14.97L12.43 14.97Q12.43 15.22 12.43 15.32L12.43 15.32L12.43 15.32Q12.42 15.43 12.35 15.43L12.35 15.43L12.35 15.43Q12.29 15.43 12.12 15.36L12.12 15.36L12.12 15.36Q11.96 15.29 11.78 15.14L11.78 15.14L11.78 15.14Q11.61 14.99 11.47 14.77L11.47 14.77L11.47 14.77Q11.33 14.55 11.33 14.24ZM14 8.16L14 8.16L14 8.16Q14 8.08 14.04 7.91L14.04 7.91L14.04 7.91Q13.97 7.84 13.92 7.70L13.92 7.70L13.92 7.70Q13.87 7.56 13.87 7.45L13.87 7.45L13.87 7.45Q13.87 7.32 13.91 7.11L13.91 7.11L13.91 7.11Q13.94 6.89 14 6.64L14 6.64L14 6.64Q14.06 6.38 14.14 6.11L14.14 6.11L14.14 6.11Q14.22 5.84 14.31 5.61L14.31 5.61L14.31 5.61Q14.48 5.61 14.72 5.71L14.72 5.71L14.72 5.71Q14.97 5.80 15.22 5.94L15.22 5.94L15.22 5.94Q15.47 6.09 15.68 6.27L15.68 6.27L15.68 6.27Q15.89 6.44 16.00 6.59L16.00 6.59L16.00 6.59Q15.85 6.75 15.60 7.02L15.60 7.02L15.60 7.02Q15.34 7.29 15.11 7.59L15.11 7.59L15.11 7.59Q14.87 7.90 14.67 8.16L14.67 8.16L14.67 8.16Q14.48 8.43 14.42 8.54L14.42 8.54L14.42 8.54Q14.25 8.51 14.13 8.39L14.13 8.39L14.13 8.39Q14 8.27 14 8.16ZM19.45 9.52L19.45 9.52L19.45 9.52Q19.59 9.52 19.78 9.57L19.78 9.57L19.78 9.57Q19.96 9.62 20.12 9.70L20.12 9.70L20.12 9.70Q20.27 9.77 20.38 9.86L20.38 9.86L20.38 9.86Q20.48 9.94 20.48 10.01L20.48 10.01L20.48 10.01Q20.20 10.60 19.96 11.19L19.96 11.19L19.96 11.19Q19.73 11.79 19.56 12.33L19.56 12.33L19.56 12.33Q19.39 12.88 19.30 13.36L19.30 13.36L19.30 13.36Q19.21 13.83 19.21 14.18L19.21 14.18L19.21 14.18Q19.21 14.57 19.29 14.83L19.29 14.83L19.29 14.83Q19.38 15.09 19.57 15.20L19.57 15.20L19.57 15.20Q19.40 15.32 19.14 15.39L19.14 15.39L19.14 15.39Q18.87 15.46 18.66 15.46L18.66 15.46L18.66 15.46Q17.91 15.46 17.91 14.42L17.91 14.42L17.91 14.42Q17.91 13.62 18.44 12.24L18.44 12.24L18.44 12.24Q18.16 12.88 17.79 13.45L17.79 13.45L17.79 13.45Q17.43 14.01 17.05 14.45L17.05 14.45L17.05 14.45Q16.67 14.88 16.29 15.15L16.29 15.15L16.29 15.15Q15.90 15.43 15.58 15.48L15.58 15.48L15.58 15.48Q15.06 15.46 14.74 14.99L14.74 14.99L14.74 14.99Q14.42 14.52 14.42 13.79L14.42 13.79L14.42 13.79Q14.42 13.01 14.76 12.14L14.76 12.14L14.76 12.14Q15.09 11.27 15.62 10.53L15.62 10.53L15.62 10.53Q16.14 9.79 16.76 9.29L16.76 9.29L16.76 9.29Q17.37 8.79 17.95 8.76L17.95 8.76L17.95 8.76Q18.09 8.81 18.26 8.93L18.26 8.93L18.26 8.93Q18.44 9.06 18.60 9.23L18.60 9.23L18.60 9.23Q18.76 9.39 18.87 9.57L18.87 9.57L18.87 9.57Q18.98 9.74 19.00 9.87L19.00 9.87L19.00 9.87Q18.44 9.95 17.84 10.42L17.84 10.42L17.84 10.42Q17.25 10.88 16.77 11.53L16.77 11.53L16.77 11.53Q16.28 12.18 15.97 12.92L15.97 12.92L15.97 12.92Q15.67 13.66 15.67 14.31L15.67 14.31L15.67 14.31Q15.67 14.57 15.86 14.64L15.86 14.64L15.86 14.64Q16.27 14.56 16.80 13.95L16.80 13.95L16.80 13.95Q17.33 13.34 18.09 12.07L18.09 12.07L18.09 12.07Q18.23 11.82 18.40 11.51L18.40 11.51L18.40 11.51Q18.58 11.20 18.76 10.86L18.76 10.86L18.76 10.86Q18.94 10.53 19.12 10.18L19.12 10.18L19.12 10.18Q19.29 9.84 19.45 9.52ZM25.16 12.43L25.16 12.43L25.16 12.43Q25.16 11.45 25.39 10.51L25.39 10.51L25.39 10.51Q25.62 9.56 26.04 8.71L26.04 8.71L26.04 8.71Q26.46 7.87 27.04 7.16L27.04 7.16L27.04 7.16Q27.62 6.45 28.32 5.94L28.32 5.94L28.32 5.94Q29.01 5.42 29.79 5.13L29.79 5.13L29.79 5.13Q30.58 4.84 31.40 4.84L31.40 4.84L31.40 4.84Q32.37 4.84 32.91 5.25L32.91 5.25L32.91 5.25Q33.45 5.66 33.45 6.38L33.45 6.38L33.45 6.38Q33.45 6.66 33.37 6.96L33.37 6.96L33.37 6.96Q33.29 7.25 33.15 7.54L33.15 7.54L33.15 7.54Q33.00 7.83 32.80 8.09L32.80 8.09L32.80 8.09Q32.61 8.36 32.37 8.55L32.37 8.55L32.37 8.55Q32.00 8.50 31.74 8.22L31.74 8.22L31.74 8.22Q31.47 7.95 31.40 7.59L31.40 7.59L31.40 7.59Q31.89 7.18 32.18 6.74L32.18 6.74L32.18 6.74Q32.47 6.30 32.47 5.94L32.47 5.94L32.47 5.94Q32.47 5.32 31.70 5.32L31.70 5.32L31.70 5.32Q31.37 5.32 31.03 5.45L31.03 5.45L31.03 5.45Q30.69 5.59 30.34 5.82L30.34 5.82L30.34 5.82Q29.99 6.06 29.66 6.40L29.66 6.40L29.66 6.40Q29.33 6.73 29.05 7.14L29.05 7.14L29.05 7.14Q27.10 9.94 27.10 12.87L27.10 12.87L27.10 12.87Q27.10 13.90 27.43 14.53L27.43 14.53L27.43 14.53Q27.75 15.16 28.28 15.27L28.28 15.27L28.28 15.27Q28.88 15.13 29.81 14.50L29.81 14.50L29.81 14.50Q30.73 13.87 31.82 12.87L31.82 12.87L31.82 12.87Q31.96 13.01 31.99 13.16L31.99 13.16L31.99 13.16Q31.58 13.69 31.15 14.18L31.15 14.18L31.15 14.18Q30.72 14.67 30.29 15.08L30.29 15.08L30.29 15.08Q29.86 15.48 29.45 15.79L29.45 15.79L29.45 15.79Q29.04 16.10 28.69 16.27L28.69 16.27L28.69 16.27Q26.95 16.24 26.05 15.27L26.05 15.27L26.05 15.27Q25.16 14.31 25.16 12.43ZM37.81 9.52L37.81 9.52L37.81 9.52Q37.95 9.52 38.14 9.57L38.14 9.57L38.14 9.57Q38.33 9.62 38.49 9.70L38.49 9.70L38.49 9.70Q38.64 9.77 38.75 9.86L38.75 9.86L38.75 9.86Q38.85 9.94 38.85 10.01L38.85 10.01L38.85 10.01Q38.57 10.60 38.33 11.19L38.33 11.19L38.33 11.19Q38.09 11.79 37.93 12.33L37.93 12.33L37.93 12.33Q37.76 12.88 37.67 13.36L37.67 13.36L37.67 13.36Q37.58 13.83 37.58 14.18L37.58 14.18L37.58 14.18Q37.58 14.57 37.66 14.83L37.66 14.83L37.66 14.83Q37.74 15.09 37.94 15.20L37.94 15.20L37.94 15.20Q37.77 15.32 37.51 15.39L37.51 15.39L37.51 15.39Q37.24 15.46 37.03 15.46L37.03 15.46L37.03 15.46Q36.27 15.46 36.27 14.42L36.27 14.42L36.27 14.42Q36.27 13.62 36.81 12.24L36.81 12.24L36.81 12.24Q36.53 12.88 36.16 13.45L36.16 13.45L36.16 13.45Q35.80 14.01 35.42 14.45L35.42 14.45L35.42 14.45Q35.04 14.88 34.66 15.15L34.66 15.15L34.66 15.15Q34.27 15.43 33.95 15.48L33.95 15.48L33.95 15.48Q33.43 15.46 33.11 14.99L33.11 14.99L33.11 14.99Q32.79 14.52 32.79 13.79L32.79 13.79L32.79 13.79Q32.79 13.01 33.12 12.14L33.12 12.14L33.12 12.14Q33.46 11.27 33.98 10.53L33.98 10.53L33.98 10.53Q34.51 9.79 35.13 9.29L35.13 9.29L35.13 9.29Q35.74 8.79 36.32 8.76L36.32 8.76L36.32 8.76Q36.46 8.81 36.63 8.93L36.63 8.93L36.63 8.93Q36.81 9.06 36.97 9.23L36.97 9.23L36.97 9.23Q37.13 9.39 37.24 9.57L37.24 9.57L37.24 9.57Q37.35 9.74 37.37 9.87L37.37 9.87L37.37 9.87Q36.81 9.95 36.21 10.42L36.21 10.42L36.21 10.42Q35.62 10.88 35.13 11.53L35.13 11.53L35.13 11.53Q34.65 12.18 34.34 12.92L34.34 12.92L34.34 12.92Q34.03 13.66 34.03 14.31L34.03 14.31L34.03 14.31Q34.03 14.57 34.23 14.64L34.23 14.64L34.23 14.64Q34.64 14.56 35.17 13.95L35.17 13.95L35.17 13.95Q35.70 13.34 36.46 12.07L36.46 12.07L36.46 12.07Q36.60 11.82 36.77 11.51L36.77 11.51L36.77 11.51Q36.95 11.20 37.13 10.86L37.13 10.86L37.13 10.86Q37.31 10.53 37.48 10.18L37.48 10.18L37.48 10.18Q37.66 9.84 37.81 9.52ZM40.74 15.27L40.74 15.27L40.74 15.27Q41.38 14.84 42 14.16L42 14.16L42 14.16Q42.62 13.48 43.12 12.69L43.12 12.69L43.12 12.69Q43.62 11.90 43.97 11.05L43.97 11.05L43.97 11.05Q44.32 10.19 44.45 9.41L44.45 9.41L44.45 9.41Q44.45 9.24 44.27 9.18L44.27 9.18L44.27 9.18Q44.07 9.18 43.73 9.53L43.73 9.53L43.73 9.53Q43.39 9.87 42.97 10.40L42.97 10.40L42.97 10.40Q42.56 10.93 42.13 11.59L42.13 11.59L42.13 11.59Q41.71 12.25 41.36 12.90L41.36 12.90L41.36 12.90Q41.01 13.55 40.76 14.12L40.76 14.12L40.76 14.12Q40.52 14.69 40.49 15.04L40.49 15.04L40.49 15.04Q40.35 15.04 40.25 14.76L40.25 14.76L40.25 14.76Q40.22 14.69 40.15 14.61L40.15 14.61L40.15 14.61Q40.08 14.53 39.93 14.42L39.93 14.42L39.93 14.42Q39.86 14.36 39.79 14.29L39.79 14.29L39.79 14.29Q39.72 14.21 39.69 14.15L39.69 14.15L39.69 14.15Q39.63 14.04 39.63 13.79L39.63 13.79L39.63 13.79Q39.63 12.96 39.84 11.93L39.84 11.93L39.84 11.93Q40.05 10.89 40.40 9.81L40.40 9.81L40.40 9.81Q40.74 8.74 41.20 7.69L41.20 7.69L41.20 7.69Q41.66 6.65 42.16 5.78L42.16 5.78L42.16 5.78Q42.66 4.91 43.16 4.31L43.16 4.31L43.16 4.31Q43.67 3.71 44.11 3.51L44.11 3.51L44.11 3.51Q44.25 3.56 44.45 3.65L44.45 3.65L44.45 3.65Q44.65 3.75 44.84 3.88L44.84 3.88L44.84 3.88Q45.04 4.00 45.21 4.13L45.21 4.13L45.21 4.13Q45.39 4.26 45.47 4.35L45.47 4.35L45.47 4.35Q43.93 5.60 42.80 7.55L42.80 7.55L42.80 7.55Q41.68 9.51 40.96 12.17L40.96 12.17L40.96 12.17Q41.36 11.44 41.85 10.76L41.85 10.76L41.85 10.76Q42.34 10.08 42.82 9.56L42.82 9.56L42.82 9.56Q43.30 9.04 43.74 8.74L43.74 8.74L43.74 8.74Q44.18 8.43 44.48 8.43L44.48 8.43L44.48 8.43Q44.70 8.48 44.91 8.62L44.91 8.62L44.91 8.62Q45.12 8.76 45.29 8.97L45.29 8.97L45.29 8.97Q45.46 9.17 45.57 9.40L45.57 9.40L45.57 9.40Q45.68 9.63 45.71 9.88L45.71 9.88L45.71 9.88Q45.70 10.47 45.51 11.14L45.51 11.14L45.51 11.14Q45.32 11.80 45.00 12.45L45.00 12.45L45.00 12.45Q44.69 13.09 44.29 13.68L44.29 13.68L44.29 13.68Q43.89 14.27 43.45 14.71L43.45 14.71L43.45 14.71Q43.01 15.15 42.57 15.41L42.57 15.41L42.57 15.41Q42.13 15.68 41.73 15.68L41.73 15.68L41.73 15.68Q41.57 15.68 41.39 15.64L41.39 15.64L41.39 15.64Q41.22 15.61 41.07 15.55L41.07 15.55L41.07 15.55Q40.92 15.48 40.83 15.41L40.83 15.41L40.83 15.41Q40.74 15.34 40.74 15.27ZM51.07 9.38L51.07 9.38L51.07 9.38Q51.02 10.25 50.76 10.87L50.76 10.87L50.76 10.87Q50.51 11.49 50.04 11.96L50.04 11.96L50.04 11.96Q49.57 12.43 48.90 12.81L48.90 12.81L48.90 12.81Q48.23 13.19 47.33 13.54L47.33 13.54L47.33 13.54Q47.33 13.62 47.33 13.71L47.33 13.71L47.33 13.71Q47.32 13.80 47.32 13.90L47.32 13.90L47.32 13.90Q47.32 14.08 47.35 14.28L47.35 14.28L47.35 14.28Q47.38 14.48 47.45 14.64L47.45 14.64L47.45 14.64Q47.52 14.81 47.64 14.92L47.64 14.92L47.64 14.92Q47.77 15.02 47.96 15.02L47.96 15.02L47.96 15.02Q48.34 15.02 48.71 14.85L48.71 14.85L48.71 14.85Q49.07 14.69 49.40 14.44L49.40 14.44L49.40 14.44Q49.73 14.20 50.02 13.91L50.02 13.91L50.02 13.91Q50.30 13.62 50.53 13.38L50.53 13.38L50.53 13.38Q50.67 13.51 50.76 13.62L50.76 13.62L50.76 13.62Q50.13 14.46 49.38 15.02L49.38 15.02L49.38 15.02Q48.64 15.57 47.96 15.72L47.96 15.72L47.96 15.72Q47.00 15.61 46.46 15.02L46.46 15.02L46.46 15.02Q45.92 14.42 45.92 13.58L45.92 13.58L45.92 13.58Q45.92 13.01 46.08 12.41L46.08 12.41L46.08 12.41Q46.24 11.82 46.53 11.26L46.53 11.26L46.53 11.26Q46.82 10.71 47.20 10.22L47.20 10.22L47.20 10.22Q47.59 9.73 48.03 9.37L48.03 9.37L48.03 9.37Q48.47 9.00 48.94 8.79L48.94 8.79L48.94 8.79Q49.41 8.58 49.87 8.58L49.87 8.58L49.87 8.58Q50.51 8.67 51.07 9.38ZM50.11 9.84L50.11 9.84L50.11 9.84Q49.73 9.90 49.32 10.15L49.32 10.15L49.32 10.15Q48.92 10.40 48.56 10.82L48.56 10.82L48.56 10.82Q48.20 11.24 47.91 11.80L47.91 11.80L47.91 11.80Q47.61 12.36 47.45 13.01L47.45 13.01L47.45 13.01Q48.57 12.45 49.31 11.63L49.31 11.63L49.31 11.63Q50.05 10.81 50.11 9.84ZM51.70 14.28L51.70 14.28L51.70 14.28Q51.70 13.66 52.00 12.55L52.00 12.55L52.00 12.55Q52.29 11.44 52.82 9.95L52.82 9.95L52.82 9.95Q53.69 7.59 54.45 6.01L54.45 6.01L54.45 6.01Q55.22 4.44 55.94 3.56L55.94 3.56L55.94 3.56Q56.11 3.58 56.36 3.70L56.36 3.70L56.36 3.70Q56.60 3.81 56.84 3.94L56.84 3.94L56.84 3.94Q57.08 4.07 57.27 4.21L57.27 4.21L57.27 4.21Q57.46 4.35 57.51 4.44L57.51 4.44L57.51 4.44Q56.42 5.73 55.59 7.21L55.59 7.21L55.59 7.21Q54.77 8.69 54.08 10.61L54.08 10.61L54.08 10.61Q53.49 12.26 53.19 13.59L53.19 13.59L53.19 13.59Q52.88 14.91 52.88 15.79L52.88 15.79L52.88 15.79Q52.88 16.03 52.88 16.09L52.88 16.09L52.88 16.09Q52.88 16.14 52.89 16.20L52.89 16.20L52.89 16.20Q52.70 16.17 52.56 16.10L52.56 16.10L52.56 16.10Q52.42 16.03 52.37 15.93L52.37 15.93L52.37 15.93Q52.35 15.86 52.22 15.73L52.22 15.73L52.22 15.73Q52.09 15.60 52.00 15.53L52.00 15.53L52.00 15.53Q51.87 15.44 51.79 15.09L51.79 15.09L51.79 15.09Q51.70 14.73 51.70 14.28ZM59.98 9.38L59.98 9.38L59.98 9.38Q59.92 10.25 59.67 10.87L59.67 10.87L59.67 10.87Q59.42 11.49 58.95 11.96L58.95 11.96L58.95 11.96Q58.48 12.43 57.81 12.81L57.81 12.81L57.81 12.81Q57.13 13.19 56.24 13.54L56.24 13.54L56.24 13.54Q56.24 13.62 56.23 13.71L56.23 13.71L56.23 13.71Q56.22 13.80 56.22 13.90L56.22 13.90L56.22 13.90Q56.22 14.08 56.25 14.28L56.25 14.28L56.25 14.28Q56.28 14.48 56.35 14.64L56.35 14.64L56.35 14.64Q56.42 14.81 56.55 14.92L56.55 14.92L56.55 14.92Q56.67 15.02 56.87 15.02L56.87 15.02L56.87 15.02Q57.25 15.02 57.61 14.85L57.61 14.85L57.61 14.85Q57.97 14.69 58.30 14.44L58.30 14.44L58.30 14.44Q58.63 14.20 58.92 13.91L58.92 13.91L58.92 13.91Q59.21 13.62 59.43 13.38L59.43 13.38L59.43 13.38Q59.57 13.51 59.67 13.62L59.67 13.62L59.67 13.62Q59.04 14.46 58.29 15.02L58.29 15.02L58.29 15.02Q57.54 15.57 56.87 15.72L56.87 15.72L56.87 15.72Q55.90 15.61 55.36 15.02L55.36 15.02L55.36 15.02Q54.82 14.42 54.82 13.58L54.82 13.58L54.82 13.58Q54.82 13.01 54.98 12.41L54.98 12.41L54.98 12.41Q55.15 11.82 55.43 11.26L55.43 11.26L55.43 11.26Q55.72 10.71 56.11 10.22L56.11 10.22L56.11 10.22Q56.49 9.73 56.93 9.37L56.93 9.37L56.93 9.37Q57.37 9.00 57.84 8.79L57.84 8.79L57.84 8.79Q58.31 8.58 58.77 8.58L58.77 8.58L58.77 8.58Q59.42 8.67 59.98 9.38ZM59.01 9.84L59.01 9.84L59.01 9.84Q58.63 9.90 58.23 10.15L58.23 10.15L58.23 10.15Q57.82 10.40 57.46 10.82L57.46 10.82L57.46 10.82Q57.11 11.24 56.81 11.80L56.81 11.80L56.81 11.80Q56.52 12.36 56.35 13.01L56.35 13.01L56.35 13.01Q57.47 12.45 58.21 11.63L58.21 11.63L58.21 11.63Q58.95 10.81 59.01 9.84ZM60.63 14.24L60.63 14.24L60.63 14.24Q60.63 14.11 60.66 13.92L60.66 13.92L60.66 13.92Q60.68 13.73 60.73 13.42L60.73 13.42L60.73 13.42Q60.79 13.10 60.88 12.66L60.88 12.66L60.88 12.66Q60.97 12.21 61.11 11.58L61.11 11.58L61.11 11.58Q61.14 11.44 61.24 11.13L61.24 11.13L61.24 11.13Q61.33 10.82 61.49 10.48L61.49 10.48L61.49 10.48Q61.66 10.14 61.89 9.81L61.89 9.81L61.89 9.81Q62.12 9.49 62.44 9.34L62.44 9.34L62.44 9.34Q62.68 9.39 63.07 9.63L63.07 9.63L63.07 9.63Q63.46 9.86 63.74 10.26L63.74 10.26L63.74 10.26Q63.42 10.63 63.20 10.99L63.20 10.99L63.20 10.99Q62.99 11.35 62.81 11.75L62.81 11.75L62.81 11.75Q62.64 12.14 62.49 12.56L62.49 12.56L62.49 12.56Q62.34 12.98 62.16 13.44L62.16 13.44L62.16 13.44Q62.01 13.83 61.88 14.25L61.88 14.25L61.88 14.25Q61.75 14.66 61.74 14.97L61.74 14.97L61.74 14.97Q61.74 15.22 61.73 15.32L61.73 15.32L61.73 15.32Q61.73 15.43 61.66 15.43L61.66 15.43L61.66 15.43Q61.60 15.43 61.43 15.36L61.43 15.36L61.43 15.36Q61.26 15.29 61.09 15.14L61.09 15.14L61.09 15.14Q60.91 14.99 60.77 14.77L60.77 14.77L60.77 14.77Q60.63 14.55 60.63 14.24ZM63.31 8.16L63.31 8.16L63.31 8.16Q63.31 8.08 63.35 7.91L63.35 7.91L63.35 7.91Q63.28 7.84 63.23 7.70L63.23 7.70L63.23 7.70Q63.18 7.56 63.18 7.45L63.18 7.45L63.18 7.45Q63.18 7.32 63.22 7.11L63.22 7.11L63.22 7.11Q63.25 6.89 63.31 6.64L63.31 6.64L63.31 6.64Q63.36 6.38 63.45 6.11L63.45 6.11L63.45 6.11Q63.53 5.84 63.62 5.61L63.62 5.61L63.62 5.61Q63.78 5.61 64.03 5.71L64.03 5.71L64.03 5.71Q64.27 5.80 64.53 5.94L64.53 5.94L64.53 5.94Q64.78 6.09 64.99 6.27L64.99 6.27L64.99 6.27Q65.20 6.44 65.31 6.59L65.31 6.59L65.31 6.59Q65.16 6.75 64.90 7.02L64.90 7.02L64.90 7.02Q64.65 7.29 64.41 7.59L64.41 7.59L64.41 7.59Q64.18 7.90 63.98 8.16L63.98 8.16L63.98 8.16Q63.78 8.43 63.73 8.54L63.73 8.54L63.73 8.54Q63.56 8.51 63.43 8.39L63.43 8.39L63.43 8.39Q63.31 8.27 63.31 8.16ZM63.59 14.90L63.59 14.90L63.59 14.90Q63.66 14.49 63.83 13.82L63.83 13.82L63.83 13.82Q64.01 13.16 64.25 12.41L64.25 12.41L64.25 12.41Q64.48 11.66 64.75 10.91L64.75 10.91L64.75 10.91Q65.02 10.15 65.27 9.55L65.27 9.55L65.27 9.55Q65.45 9.11 65.59 8.87L65.59 8.87L65.59 8.87Q65.73 8.62 65.90 8.46L65.90 8.46L65.90 8.46Q66.09 8.48 66.30 8.55L66.30 8.55L66.30 8.55Q66.51 8.62 66.71 8.72L66.71 8.72L66.71 8.72Q66.91 8.82 67.06 8.93L67.06 8.93L67.06 8.93Q67.21 9.03 67.30 9.13L67.30 9.13L67.30 9.13Q66.92 9.58 66.63 10.15L66.63 10.15L66.63 10.15Q66.35 10.72 66.05 11.62L66.05 11.62L66.05 11.62Q66.81 10.95 67.39 10.33L67.39 10.33L67.39 10.33Q67.97 9.72 68.47 8.96L68.47 8.96L68.47 8.96Q68.56 8.89 68.77 8.89L68.77 8.89L68.77 8.89Q68.96 8.89 69.15 8.95L69.15 8.95L69.15 8.95Q69.33 9.02 69.40 9.13L69.40 9.13L69.40 9.13Q69.15 9.80 69.15 10.46L69.15 10.46L69.15 10.46Q69.15 11.07 69.33 11.38L69.33 11.38L69.33 11.38Q69.31 11.47 69.14 11.70L69.14 11.70L69.14 11.70Q68.96 11.94 68.75 12.15L68.75 12.15L68.75 12.15Q68.38 11.96 68.08 11.61L68.08 11.61L68.08 11.61Q67.79 11.27 67.65 10.86L67.65 10.86L67.65 10.86Q66.99 11.33 66.53 11.77L66.53 11.77L66.53 11.77Q66.07 12.21 65.74 12.75L65.74 12.75L65.74 12.75Q65.41 13.29 65.18 13.99L65.18 13.99L65.18 13.99Q64.95 14.69 64.74 15.65L64.74 15.65L64.74 15.65Q64.61 15.64 64.44 15.56L64.44 15.56L64.44 15.56Q64.26 15.48 64.09 15.37L64.09 15.37L64.09 15.37Q63.91 15.26 63.77 15.13L63.77 15.13L63.77 15.13Q63.63 15.01 63.59 14.90ZM74.58 9.38L74.58 9.38L74.58 9.38Q74.52 10.25 74.27 10.87L74.27 10.87L74.27 10.87Q74.02 11.49 73.55 11.96L73.55 11.96L73.55 11.96Q73.08 12.43 72.41 12.81L72.41 12.81L72.41 12.81Q71.74 13.19 70.84 13.54L70.84 13.54L70.84 13.54Q70.84 13.62 70.83 13.71L70.83 13.71L70.83 13.71Q70.83 13.80 70.83 13.90L70.83 13.90L70.83 13.90Q70.83 14.08 70.85 14.28L70.85 14.28L70.85 14.28Q70.88 14.48 70.95 14.64L70.95 14.64L70.95 14.64Q71.02 14.81 71.15 14.92L71.15 14.92L71.15 14.92Q71.27 15.02 71.47 15.02L71.47 15.02L71.47 15.02Q71.85 15.02 72.21 14.85L72.21 14.85L72.21 14.85Q72.58 14.69 72.91 14.44L72.91 14.44L72.91 14.44Q73.23 14.20 73.52 13.91L73.52 13.91L73.52 13.91Q73.81 13.62 74.03 13.38L74.03 13.38L74.03 13.38Q74.17 13.51 74.27 13.62L74.27 13.62L74.27 13.62Q73.64 14.46 72.89 15.02L72.89 15.02L72.89 15.02Q72.14 15.57 71.47 15.72L71.47 15.72L71.47 15.72Q70.50 15.61 69.97 15.02L69.97 15.02L69.97 15.02Q69.43 14.42 69.43 13.58L69.43 13.58L69.43 13.58Q69.43 13.01 69.59 12.41L69.59 12.41L69.59 12.41Q69.75 11.82 70.03 11.26L70.03 11.26L70.03 11.26Q70.32 10.71 70.71 10.22L70.71 10.22L70.71 10.22Q71.09 9.73 71.53 9.37L71.53 9.37L71.53 9.37Q71.97 9.00 72.44 8.79L72.44 8.79L72.44 8.79Q72.91 8.58 73.37 8.58L73.37 8.58L73.37 8.58Q74.02 8.67 74.58 9.38ZM73.61 9.84L73.61 9.84L73.61 9.84Q73.23 9.90 72.83 10.15L72.83 10.15L72.83 10.15Q72.42 10.40 72.06 10.82L72.06 10.82L72.06 10.82Q71.71 11.24 71.41 11.80L71.41 11.80L71.41 11.80Q71.12 12.36 70.95 13.01L70.95 13.01L70.95 13.01Q72.07 12.45 72.81 11.63L72.81 11.63L72.81 11.63Q73.56 10.81 73.61 9.84ZM75.24 14.24L75.24 14.24L75.24 14.24Q75.24 14.11 75.26 13.92L75.26 13.92L75.26 13.92Q75.28 13.73 75.33 13.42L75.33 13.42L75.33 13.42Q75.39 13.10 75.48 12.66L75.48 12.66L75.48 12.66Q75.57 12.21 75.71 11.58L75.71 11.58L75.71 11.58Q75.74 11.44 75.84 11.13L75.84 11.13L75.84 11.13Q75.94 10.82 76.10 10.48L76.10 10.48L76.10 10.48Q76.26 10.14 76.49 9.81L76.49 9.81L76.49 9.81Q76.72 9.49 77.04 9.34L77.04 9.34L77.04 9.34Q77.28 9.39 77.67 9.63L77.67 9.63L77.67 9.63Q78.06 9.86 78.34 10.26L78.34 10.26L78.34 10.26Q78.02 10.63 77.81 10.99L77.81 10.99L77.81 10.99Q77.59 11.35 77.41 11.75L77.41 11.75L77.41 11.75Q77.24 12.14 77.09 12.56L77.09 12.56L77.09 12.56Q76.94 12.98 76.76 13.44L76.76 13.44L76.76 13.44Q76.61 13.83 76.48 14.25L76.48 14.25L76.48 14.25Q76.36 14.66 76.34 14.97L76.34 14.97L76.34 14.97Q76.34 15.22 76.34 15.32L76.34 15.32L76.34 15.32Q76.33 15.43 76.26 15.43L76.26 15.43L76.26 15.43Q76.20 15.43 76.03 15.36L76.03 15.36L76.03 15.36Q75.87 15.29 75.69 15.14L75.69 15.14L75.69 15.14Q75.52 14.99 75.38 14.77L75.38 14.77L75.38 14.77Q75.24 14.55 75.24 14.24ZM77.91 8.16L77.91 8.16L77.91 8.16Q77.91 8.08 77.95 7.91L77.95 7.91L77.95 7.91Q77.88 7.84 77.83 7.70L77.83 7.70L77.83 7.70Q77.78 7.56 77.78 7.45L77.78 7.45L77.78 7.45Q77.78 7.32 77.82 7.11L77.82 7.11L77.82 7.11Q77.85 6.89 77.91 6.64L77.91 6.64L77.91 6.64Q77.97 6.38 78.05 6.11L78.05 6.11L78.05 6.11Q78.13 5.84 78.22 5.61L78.22 5.61L78.22 5.61Q78.39 5.61 78.63 5.71L78.63 5.71L78.63 5.71Q78.88 5.80 79.13 5.94L79.13 5.94L79.13 5.94Q79.38 6.09 79.59 6.27L79.59 6.27L79.59 6.27Q79.80 6.44 79.91 6.59L79.91 6.59L79.91 6.59Q79.76 6.75 79.51 7.02L79.51 7.02L79.51 7.02Q79.25 7.29 79.02 7.59L79.02 7.59L79.02 7.59Q78.78 7.90 78.58 8.16L78.58 8.16L78.58 8.16Q78.39 8.43 78.33 8.54L78.33 8.54L78.33 8.54Q78.16 8.51 78.04 8.39L78.04 8.39L78.04 8.39Q77.91 8.27 77.91 8.16ZM78.19 14.90L78.19 14.90L78.19 14.90Q78.26 14.49 78.44 13.82L78.44 13.82L78.44 13.82Q78.61 13.16 78.85 12.41L78.85 12.41L78.85 12.41Q79.09 11.66 79.35 10.91L79.35 10.91L79.35 10.91Q79.62 10.15 79.87 9.55L79.87 9.55L79.87 9.55Q80.05 9.11 80.19 8.87L80.19 8.87L80.19 8.87Q80.33 8.62 80.50 8.46L80.50 8.46L80.50 8.46Q80.70 8.48 80.91 8.55L80.91 8.55L80.91 8.55Q81.12 8.62 81.31 8.72L81.31 8.72L81.31 8.72Q81.51 8.82 81.66 8.93L81.66 8.93L81.66 8.93Q81.82 9.03 81.90 9.13L81.90 9.13L81.90 9.13Q81.52 9.58 81.24 10.15L81.24 10.15L81.24 10.15Q80.95 10.72 80.65 11.62L80.65 11.62L80.65 11.62Q81.41 10.95 81.99 10.33L81.99 10.33L81.99 10.33Q82.57 9.72 83.08 8.96L83.08 8.96L83.08 8.96Q83.16 8.89 83.37 8.89L83.37 8.89L83.37 8.89Q83.57 8.89 83.75 8.95L83.75 8.95L83.75 8.95Q83.93 9.02 84 9.13L84 9.13L84 9.13Q83.75 9.80 83.75 10.46L83.75 10.46L83.75 10.46Q83.75 11.07 83.93 11.38L83.93 11.38L83.93 11.38Q83.92 11.47 83.74 11.70L83.74 11.70L83.74 11.70Q83.57 11.94 83.36 12.15L83.36 12.15L83.36 12.15Q82.98 11.96 82.68 11.61L82.68 11.61L82.68 11.61Q82.39 11.27 82.25 10.86L82.25 10.86L82.25 10.86Q81.59 11.33 81.13 11.77L81.13 11.77L81.13 11.77Q80.67 12.21 80.34 12.75L80.34 12.75L80.34 12.75Q80.01 13.29 79.78 13.99L79.78 13.99L79.78 13.99Q79.55 14.69 79.34 15.65L79.34 15.65L79.34 15.65Q79.21 15.64 79.04 15.56L79.04 15.56L79.04 15.56Q78.86 15.48 78.69 15.37L78.69 15.37L78.69 15.37Q78.51 15.26 78.37 15.13L78.37 15.13L78.37 15.13Q78.23 15.01 78.19 14.90ZM89.00 9.52L89.00 9.52L89.00 9.52Q89.14 9.52 89.33 9.57L89.33 9.57L89.33 9.57Q89.52 9.62 89.67 9.70L89.67 9.70L89.67 9.70Q89.82 9.77 89.93 9.86L89.93 9.86L89.93 9.86Q90.03 9.94 90.03 10.01L90.03 10.01L90.03 10.01Q89.75 10.60 89.52 11.19L89.52 11.19L89.52 11.19Q89.28 11.79 89.11 12.33L89.11 12.33L89.11 12.33Q88.94 12.88 88.85 13.36L88.85 13.36L88.85 13.36Q88.76 13.83 88.76 14.18L88.76 14.18L88.76 14.18Q88.76 14.57 88.84 14.83L88.84 14.83L88.84 14.83Q88.93 15.09 89.12 15.20L89.12 15.20L89.12 15.20Q88.96 15.32 88.69 15.39L88.69 15.39L88.69 15.39Q88.42 15.46 88.21 15.46L88.21 15.46L88.21 15.46Q87.46 15.46 87.46 14.42L87.46 14.42L87.46 14.42Q87.46 13.62 87.99 12.24L87.99 12.24L87.99 12.24Q87.71 12.88 87.35 13.45L87.35 13.45L87.35 13.45Q86.98 14.01 86.60 14.45L86.60 14.45L86.60 14.45Q86.23 14.88 85.84 15.15L85.84 15.15L85.84 15.15Q85.46 15.43 85.13 15.48L85.13 15.48L85.13 15.48Q84.62 15.46 84.29 14.99L84.29 14.99L84.29 14.99Q83.97 14.52 83.97 13.79L83.97 13.79L83.97 13.79Q83.97 13.01 84.31 12.14L84.31 12.14L84.31 12.14Q84.64 11.27 85.17 10.53L85.17 10.53L85.17 10.53Q85.69 9.79 86.31 9.29L86.31 9.29L86.31 9.29Q86.93 8.79 87.50 8.76L87.50 8.76L87.50 8.76Q87.64 8.81 87.81 8.93L87.81 8.93L87.81 8.93Q87.99 9.06 88.15 9.23L88.15 9.23L88.15 9.23Q88.31 9.39 88.42 9.57L88.42 9.57L88.42 9.57Q88.54 9.74 88.55 9.87L88.55 9.87L88.55 9.87Q87.99 9.95 87.39 10.42L87.39 10.42L87.39 10.42Q86.80 10.88 86.32 11.53L86.32 11.53L86.32 11.53Q85.83 12.18 85.53 12.92L85.53 12.92L85.53 12.92Q85.22 13.66 85.22 14.31L85.22 14.31L85.22 14.31Q85.22 14.57 85.41 14.64L85.41 14.64L85.41 14.64Q85.82 14.56 86.35 13.95L86.35 13.95L86.35 13.95Q86.88 13.34 87.64 12.07L87.64 12.07L87.64 12.07Q87.78 11.82 87.95 11.51L87.95 11.51L87.95 11.51Q88.13 11.20 88.31 10.86L88.31 10.86L88.31 10.86Q88.49 10.53 88.67 10.18L88.67 10.18L88.67 10.18Q88.84 9.84 89.00 9.52Z"></path></g><!----><!----></svg>